<svg xmlns="http://www.w3.org/2000/svg" viewBox="0 0 24 24" id="notepad">
  <circle cx="16.001" cy="15.75" r="6" fill="#75afff"></circle>
  <path fill="#112d55" d="m15.75,16c0,.414-.336.75-.75.75h-6c-.414,0-.75-.336-.75-.75s.336-.75.75-.75h6c.414,0,.75.336.75.75Zm-.75-3.75h-6c-.414,0-.75.336-.75.75s.336.75.75.75h6c.414,0,.75-.336.75-.75s-.336-.75-.75-.75Zm0-3h-6c-.414,0-.75.336-.75.75s.336.75.75.75h6c.414,0,.75-.336.75-.75s-.336-.75-.75-.75Zm4.75-3.25v13c0,1.517-1.233,2.75-2.75,2.75H7c-1.517,0-2.75-1.233-2.75-2.75V6c0-1.517,1.233-2.75,2.75-2.75h1.25v-.25c0-.414.336-.75.75-.75s.75.336.75.75v.25h4.5v-.25c0-.414.336-.75.75-.75s.75.336.75.75v.25h1.25c1.517,0,2.75,1.233,2.75,2.75Zm-1.5,0c0-.689-.561-1.25-1.25-1.25h-1.25v.25c0,.414-.336.75-.75.75s-.75-.336-.75-.75v-.25h-4.5v.25c0,.414-.336.75-.75.75s-.75-.336-.75-.75v-.25h-1.25c-.689,0-1.25.561-1.25,1.25v13c0,.689.561,1.25,1.25,1.25h10c.689,0,1.25-.561,1.25-1.25V6Z"></path>
</svg>
