<svg width="68" height="12" viewBox="0 0 68 12" fill="none" xmlns="http://www.w3.org/2000/svg">
<path d="M0 11.6V0.400012H3.104L8.8 7.21601H7.36V0.400012H11.04V11.6H7.936L2.24 4.78401H3.68V11.6H0Z" fill="#4753D8"/>
<path d="M18.7314 11.856C17.8247 11.856 16.982 11.712 16.2034 11.424C15.4354 11.136 14.7687 10.7307 14.2034 10.208C13.638 9.67468 13.1954 9.05068 12.8754 8.33601C12.566 7.62135 12.4114 6.84268 12.4114 6.00001C12.4114 5.14668 12.566 4.36801 12.8754 3.66401C13.1954 2.94935 13.638 2.33068 14.2034 1.80801C14.7687 1.27468 15.4354 0.864012 16.2034 0.576013C16.982 0.288013 17.8247 0.144012 18.7314 0.144012C19.6487 0.144012 20.4914 0.288013 21.2594 0.576013C22.0274 0.864012 22.694 1.27468 23.2594 1.80801C23.8247 2.33068 24.262 2.94935 24.5714 3.66401C24.8914 4.36801 25.0514 5.14668 25.0514 6.00001C25.0514 6.84268 24.8914 7.62135 24.5714 8.33601C24.262 9.05068 23.8247 9.67468 23.2594 10.208C22.694 10.7307 22.0274 11.136 21.2594 11.424C20.4914 11.712 19.6487 11.856 18.7314 11.856ZM18.7314 8.80001C19.0834 8.80001 19.4087 8.73601 19.7074 8.60801C20.0167 8.48001 20.2834 8.29868 20.5074 8.06401C20.742 7.81868 20.9234 7.52535 21.0514 7.18401C21.1794 6.83201 21.2434 6.43735 21.2434 6.00001C21.2434 5.56268 21.1794 5.17335 21.0514 4.83201C20.9234 4.48001 20.742 4.18668 20.5074 3.95201C20.2834 3.70668 20.0167 3.52001 19.7074 3.39201C19.4087 3.26401 19.0834 3.20001 18.7314 3.20001C18.3794 3.20001 18.0487 3.26401 17.7394 3.39201C17.4407 3.52001 17.174 3.70668 16.9394 3.95201C16.7154 4.18668 16.5394 4.48001 16.4114 4.83201C16.2834 5.17335 16.2194 5.56268 16.2194 6.00001C16.2194 6.43735 16.2834 6.83201 16.4114 7.18401C16.5394 7.52535 16.7154 7.81868 16.9394 8.06401C17.174 8.29868 17.4407 8.48001 17.7394 8.60801C18.0487 8.73601 18.3794 8.80001 18.7314 8.80001Z" fill="#4753D8"/>
<path d="M28.6976 11.6V3.32801H25.4176V0.400012H35.7536V3.32801H32.4736V11.6H28.6976Z" fill="#4753D8"/>
<path d="M40.1904 4.56001H45.1824V7.28001H40.1904V4.56001ZM40.4464 8.75201H46.0464V11.6H36.7344V0.400012H45.8384V3.24801H40.4464V8.75201Z" fill="#4753D8"/>
<path d="M52.2969 11.6V0.400012H56.0729V11.6H52.2969Z" fill="#4753D8"/>
<path d="M60.3226 11.6V3.32801H57.0426V0.400012H67.3786V3.32801H64.0986V11.6H60.3226Z" fill="#4753D8"/>
</svg>
