<svg width="24" height="24" viewBox="0 0 24 24" fill="none" xmlns="http://www.w3.org/2000/svg">
<path d="M4.5 7H6.16667H19.5" stroke="#F11B26" stroke-width="1.8" stroke-linecap="round" stroke-linejoin="round"/>
<path d="M17.8333 7V18.6667C17.8333 19.1087 17.6577 19.5326 17.3452 19.8452C17.0326 20.1577 16.6087 20.3333 16.1667 20.3333H7.83332C7.3913 20.3333 6.96737 20.1577 6.65481 19.8452C6.34225 19.5326 6.16666 19.1087 6.16666 18.6667V7M8.66666 7V5.33333C8.66666 4.8913 8.84225 4.46738 9.15481 4.15482C9.46737 3.84226 9.8913 3.66666 10.3333 3.66666H13.6667C14.1087 3.66666 14.5326 3.84226 14.8452 4.15482C15.1577 4.46738 15.3333 4.8913 15.3333 5.33333V7" stroke="#F11B26" stroke-width="1.8" stroke-linecap="round" stroke-linejoin="round"/>
<path d="M10.3333 11.1667V16.1667" stroke="#F11B26" stroke-width="1.8" stroke-linecap="round" stroke-linejoin="round"/>
<path d="M13.6667 11.1667V16.1667" stroke="#F11B26" stroke-width="1.8" stroke-linecap="round" stroke-linejoin="round"/>
</svg>
